<svg xmlns="http://www.w3.org/2000/svg" viewBox="0 0 485.99 114.16"><defs><style>.cls-1{fill:#fff;}</style></defs><title>cafe-villa-logo</title><g id="Layer_3" data-name="Layer 3"><path class="cls-1" d="M485.32,91.66c-2.38-5.21-9-7.4-14.24-8-5.95-.73-10.42-.08-12.45-1.43-2.52-1.68-1.74-4.65-1.87-5.52-.22-1.58,2.53-15.62-.54-23.32a2.5,2.5,0,0,0-1.28-1.41,4.34,4.34,0,0,0-2-.41,6.68,6.68,0,0,0-2.82.83c-1,.52-1.84,1.22-2.77,1.8-.31.19-.72.56-1.11.43s-.56-.75-.76-1.13c-1.12-2.19-3.36-3.61-5.52-4.63-1.59-.74-3.21-1.38-4.86-2a58.7,58.7,0,0,0-5.66-1.74c-1-.24-1.93-.44-2.9-.59-.48-.08-1-.14-1.44-.19-.27,0-1,.07-1-.35s.56-.78.81-1a4.28,4.28,0,0,0,1.64-2.85A3.43,3.43,0,0,0,426,38.2,12.38,12.38,0,0,0,424.2,36a23,23,0,0,1-1.76-1.8,7.36,7.36,0,0,1-1.51-4.49c0-3.91,1.57-7.68,2.72-11.36a17.51,17.51,0,0,0,.83-3.43c.11-1.06,0-2.68-1.16-3.14a2.36,2.36,0,0,0-2.15.42,1,1,0,0,0-.3.34c-.17.35.09.56.38.7a1.63,1.63,0,0,1,.65.51,2.41,2.41,0,0,1,.46,1.16,8.28,8.28,0,0,1,0,1.65c-.33,3.92-2.08,7.54-3,11.33a8.39,8.39,0,0,0-.15,4,12.78,12.78,0,0,0,1.7,3.67,12.49,12.49,0,0,0,1.55,1.93c.58.57,1.27,1,1.46,1.83.33,1.39-.73,2.81-1.79,3.6a3.83,3.83,0,0,1-1.32.67,6.18,6.18,0,0,1-1.77,0,56.67,56.67,0,0,0-5.83-.14c-.28,0-.59.09-.77-.2a2.82,2.82,0,0,1-.11-1.27c0-.54-.05-1.08-.08-1.63a40.36,40.36,0,0,1,.16-8.86c.46-2.53,1.73-4.69,2.53-7.09a38.53,38.53,0,0,0,1.52-11.75c0-2.11,0-4.21,0-6.31a11.85,11.85,0,0,0-.66-4.84,3,3,0,0,0-.91-1.17c-3.06-2-2.29,6.44-2.15,7.69.23,2.11,1.29,4,1.5,6.14a19.63,19.63,0,0,1-1.15,7.62,72.87,72.87,0,0,0-2.85,13.94c-.1,1.41-.12,2.82-.08,4.24,0,.62,0,1.26.08,1.88a3,3,0,0,1,0,1.5c-.12.26-.38.17-.61.2a20,20,0,0,1-3.18.3c-1.2,0-2.2-1.06-3.07-1.79a8.86,8.86,0,0,1-2.87-3.36c-1.12-2.87.63-5.65,2-8.06a26.63,26.63,0,0,0,3.09-11.37c.06-.78.14-1.56.14-2.34a8.68,8.68,0,0,0-.32-4,2.37,2.37,0,0,0-3.28-1,1.69,1.69,0,0,0-.66,1.12,2.37,2.37,0,0,0,1,2.44,2.84,2.84,0,0,1,1,2.34,19.77,19.77,0,0,1-1.5,8,20.37,20.37,0,0,1-2.67,4,10.58,10.58,0,0,0-1.71,9.79,12.58,12.58,0,0,0,1.45,2.61,5.77,5.77,0,0,0,1,1.13,7,7,0,0,0,.61.46c.16.11.43.22.48.42s-.42.35-.63.37a66.34,66.34,0,0,0-9.07,1.54,27,27,0,0,0-3.54,1c-.57.21-1.13.45-1.67.71l-.82.41c-.09.05-.79.37-.79.46A12.62,12.62,0,0,0,381,52a10.54,10.54,0,0,0-1.68,7.54c.15,1.41.46,2.81.69,4.22.74,4.52,1.4,9.05,1.87,13.61-3,3-4.53.82-19.74,5.93-16.74,5.63-13,16-13,16,1.33,4.7,5.46,8.49,9.77,10.49,5.86,2.71,12.47,2.86,18.8,3.34,11.65.88,23.35,1.25,35,1a299,299,0,0,0,30.51-2c6-.73,12-1.66,17.91-2.92,5.69-1.21,11.78-2.47,17-5.09C482.67,101.81,487.86,97.24,485.32,91.66ZM446.68,69.43c.07-1.56.2-3.12.36-4.67l.06-.59a.33.33,0,0,1,0-.17c.23-.37,1.27.12,1.54.25,1.24.6,1.66,2.12,2,3.33A16.19,16.19,0,0,1,451.3,72a7.69,7.69,0,0,1-.85,3.86,5.15,5.15,0,0,1-.55.77,5.31,5.31,0,0,1-1.74,1.35,1,1,0,0,1-1.38-.35,4.16,4.16,0,0,1-.18-1.86c0-1.18,0-2.37,0-3.55C446.62,71.26,446.64,70.35,446.68,69.43Zm-4.26-6.18a35.38,35.38,0,0,1,.37,7.48,52.08,52.08,0,0,1-1.36,8.68c-.71,3-2.3,5.7-3.44,8.57-.86,2.17-1.37,4.77-3.55,6.06a6.7,6.7,0,0,1-4.32.73c-1.73-.24-3.46-.43-5.19-.66a38.33,38.33,0,0,1-10.08-2.41A28.3,28.3,0,0,1,406,85.53a20.23,20.23,0,0,1-5.26-8.13c-1.08-3.56-.84-7.51-.65-11.16.06-1.28-.23-3.08.94-3.95s2.81-.6,4.09-.46c6.18.64,12.37.1,18.54-.35q3.29-.24,6.56-.54c2.16-.19,4.33-.28,6.48-.54A17.14,17.14,0,0,0,439,60c.64-.16,1.43-.66,2.1-.49.85.21.92,1.35,1.06,2S442.33,62.68,442.42,63.25Zm-55.87-9c1.44-.92,2.9-1.81,4.42-2.58s3.17-1.55,4.84-.92a1.6,1.6,0,0,1,1.1,1.51,3.22,3.22,0,0,0,.12,1.12,2.09,2.09,0,0,0,2,1,5.68,5.68,0,0,0,3.39-2c1.11-1.08,2.15-2.24,3.36-3.22a4.23,4.23,0,0,1,1.73-1,7.39,7.39,0,0,1,1.56,0h.77c.16,0,.34-.1.5-.06s.16.4.14.6c-.08.56,0,1.46.71,1.52a1.22,1.22,0,0,0,1.11-.53,2,2,0,0,0,.23-1.37.29.29,0,0,1,0-.16.22.22,0,0,1,.15-.11h.19c.51,0,1,.08,1.53.08.34,0,.67,0,1,0s.65.08,1,.08a5.69,5.69,0,0,1,1.82.38,1.06,1.06,0,0,1,.7.82,3.39,3.39,0,0,1-.1,1.27,2.13,2.13,0,0,0,.26,2,2.26,2.26,0,0,0,1.09.6,12.84,12.84,0,0,0,1.95.25,4.53,4.53,0,0,0,2.07-.17,1.53,1.53,0,0,0,.78-.56c.41-.61.16-1.32.26-2a1.33,1.33,0,0,1,.4-.8,1.75,1.75,0,0,1,1.27-.31,17.34,17.34,0,0,1,5.31,1.19,9,9,0,0,1,2.12,1c.43.3.93.73.9,1.3a1.43,1.43,0,0,1-.73,1.07c-.26.17-.53.32-.78.5s-.59.39-.56.69.16.33-.06.47a1.4,1.4,0,0,1-.6.15c-.79.09-1.57.18-2.36.24s-1.69.12-2.54.16c-1.13,0-2.25.1-3.37.13l-4.24.1c-1.72,0-3.43,0-5.15.05q-3,0-6.1,0c-2.36,0-4.73,0-7.09,0l-8.13-.1-7-.13C384.84,56.48,384.44,55.57,386.55,54.23Zm74.18,48.55c-10.85,3.34-40.56,7.09-52.43,6.08s-31.43-6.59-35.09-14.27,2-8.82,4.19-9.81a15.51,15.51,0,0,1,5.06-.89V84c.74,3,1.63,5.64,3.87,7.88,2.42,2.43,5.85,3.65,9.12,4.44,1.68.41,3.38.7,5.08,1a141.64,141.64,0,0,0,24,2,39.79,39.79,0,0,0,9.3-1.07,22.4,22.4,0,0,0,7.34-3.39c2.1-1.51,4.72-3.7,5.22-6.37a5.58,5.58,0,0,0,.09-.81c0-.15,0-.36.11-.46s.54.11.72.2a11.25,11.25,0,0,0,2.86,1,7.79,7.79,0,0,0,2.21.12,5.64,5.64,0,0,0,2-.56,7,7,0,0,1,1.29-.63,4.38,4.38,0,0,1,1.73,0c2.81.35,5.61.81,8.39,1.34,1.13.22,2.26.46,3.39.71a54.75,54.75,0,0,1,6.41,1.76l.13,0C481.93,93.34,471.59,99.43,460.73,102.78Z"/></g><g id="Layer_1" data-name="Layer 1"><path class="cls-1" d="M29.35,63.55c-1.09,1.33-2,7-4,9.85-.23.3-.47.6-.72.89a9.07,9.07,0,0,1-8.49,3.26c-10.65-1.74-12.68-23.9-6-32s14.8-5.23,16.74,1.06a27.71,27.71,0,0,1,.73,3.09c.19,1-.21,2.71.32,3.46a1.69,1.69,0,0,0,1.43.66c.6,0,1.2-.13,1.8-.17a2.2,2.2,0,0,0,1-.22c.76-.43.66-1.63.64-2.37-.1-3.09,1-16.06-2.51-16.25s-5.91,1.54-10.07,0-10.06-.87-12.87,3.09S-4.4,53.94,2.66,69.13,17.47,81.91,21.92,81.52,33.54,74.16,33.54,67.2A4.48,4.48,0,0,0,32.46,64C31.53,62.89,30.1,62.65,29.35,63.55Z"/><path class="cls-1" d="M71.79,76.9c-.32-1.22-1.61.52-5.55,0s-3.55-2.9-1.74-10,.9-13.68-2.77-17.16-10.07-1.35-17.36-.39c-2.53.34-5,1.59-5.65,4.24a9.43,9.43,0,0,0-.2,2.94c.16,1.95.9,3.92,2.63,4.44a4.13,4.13,0,0,0,4.39-1.28,18.41,18.41,0,0,0,2.53-4c1-2,2-4.12,4.53-4.25A9.28,9.28,0,0,1,58,53.21a6.55,6.55,0,0,1,3,4A4.27,4.27,0,0,1,60.2,60a10.53,10.53,0,0,1-6.06,4.46,27.27,27.27,0,0,1-6,.57,20.28,20.28,0,0,0-3.2.31A11.73,11.73,0,0,0,38,68.69c-2.08,2.34-2.14,6-.95,8.78A10.2,10.2,0,0,0,37.9,79a9.29,9.29,0,0,0,7.22,4.1,15.45,15.45,0,0,0,8.15-1.17c3.29-1.66,10.2-1,14.65-.73S72.11,78.13,71.79,76.9ZM55.4,78.71a12.5,12.5,0,0,1-8.17,1,6.32,6.32,0,0,1-3.71-1.93,6.67,6.67,0,0,1-1.41-4A6.18,6.18,0,0,1,43.91,69a7.33,7.33,0,0,1,4-1.71c5.63-.84,10.26-2.9,12.29.58S60.77,76,55.4,78.71Z"/><path class="cls-1" d="M325.76,78.24c-.32-1.22-1.61.52-5.55,0s-3.55-2.9-1.74-10,.9-13.68-2.77-17.16-10.07-1.35-17.36-.39c-2.53.34-5,1.59-5.65,4.24a9.43,9.43,0,0,0-.2,2.94c.16,2,.9,3.92,2.63,4.44A4.13,4.13,0,0,0,299.51,61,18.41,18.41,0,0,0,302,57c1-2,2-4.12,4.53-4.25a9.28,9.28,0,0,1,5.37,1.79,6.55,6.55,0,0,1,3,4,4.27,4.27,0,0,1-.76,2.79,10.53,10.53,0,0,1-6.06,4.46,27.27,27.27,0,0,1-6.05.57,20.28,20.28,0,0,0-3.2.31A11.73,11.73,0,0,0,292,70c-2.08,2.34-2.14,6-.95,8.78a10.2,10.2,0,0,0,.81,1.49,9.29,9.29,0,0,0,7.22,4.1,15.45,15.45,0,0,0,8.15-1.17c3.29-1.66,10.2-1,14.65-.73S326.08,79.47,325.76,78.24Zm-16.39,1.81a12.5,12.5,0,0,1-8.17,1,6.32,6.32,0,0,1-3.71-1.93,6.67,6.67,0,0,1-1.41-4,6.18,6.18,0,0,1,1.8-4.73,7.33,7.33,0,0,1,4-1.71c5.63-.84,10.26-2.9,12.29.58S314.74,77.29,309.37,80.05Z"/><path class="cls-1" d="M74.07,80c.07,0,1.53.11,2.28.14a16.83,16.83,0,0,0,1.74,0,8.22,8.22,0,0,0,2.52-.36,10,10,0,0,0,2.32-1.13,4.79,4.79,0,0,0,2.12-3.2,8.69,8.69,0,0,0,.07-.88A76.85,76.85,0,0,0,85,63.82a16.13,16.13,0,0,0-1.46-4.73c-.35-.75-.74-1.49-1.14-2.21s-.66-1.5-1.12-2.18a3.89,3.89,0,0,0-3.89-1.52c-.61.09-1.21.23-1.82.33s-1.15.28-1.51-.15c-.76-.91-.89-4,.79-4a42.36,42.36,0,0,0,5.52-.13c1.48-.19,3.89-.62,4.27-2.34a21.65,21.65,0,0,0,0-3.12A22,22,0,0,1,85,41.09a7.91,7.91,0,0,1,2.45-4.64,5.26,5.26,0,0,1,2.1-1,13.78,13.78,0,0,1,3.08-.24c1,0,1.89-.05,2.84,0a18.38,18.38,0,0,1,5.78,1.14,8.18,8.18,0,0,1,5.06,5.42,4.8,4.8,0,0,1,.11,2.68c-.56,2-2.48,2.31-4.28,2a18.28,18.28,0,0,0-5.62-.28,14.72,14.72,0,0,0-4.93,1.19A2.74,2.74,0,0,0,90,48.71c-.65,1.87,2.89,1.13,3.72,1,.59-.1,1.18-.21,1.77-.29s1.15-.23,1.52.16a1.4,1.4,0,0,1,.29.5,4.44,4.44,0,0,1-.08,3.07c-.31.66-1,.51-1.66.46-1.26-.1-2.49-.3-3.75-.31-.58,0-1.31-.11-1.75.36a1.84,1.84,0,0,0-.36.82A52.59,52.59,0,0,0,88,67.14v.15c0,6.15-.73,11.81,3.19,12,1.83.11,3.67,0,5.5,0a11.82,11.82,0,0,1,1.33,0c.39,0,.94.06,1.12.48a4.13,4.13,0,0,1,.2,1,3.29,3.29,0,0,1,0,1,1,1,0,0,1-.38.69c-.43.34-1,.19-1.52.13l-.89-.09c-.9-.07-1.8-.13-2.7-.17-1.2-.07-2.41-.11-3.61-.15-1.39,0-2.79-.06-4.18-.07s-2.93,0-4.4.06-2.85.1-4.27.21c-1,.08-1.91.17-2.86.3C73.09,83,73.94,80.05,74.07,80Z"/><path class="cls-1" d="M129.82,64.68c8.37-.39,10.12-1.65,10.12-4.36S137,45.08,125.32,45.08a14.63,14.63,0,0,0-3.78.49c-4.65,1.27-8.06,5-10.13,9.21a19.84,19.84,0,0,0-2.11,8.06,18.68,18.68,0,0,0,1.36,7.7c2,5.13,6.21,10.54,12.15,11a29.26,29.26,0,0,0,3,.09,15,15,0,0,0,7-1.68A18,18,0,0,0,136,77.5a6.77,6.77,0,0,0,1.93-3c.39-1.39.25-4-.93-5.09s-2.35.41-2.85,1.28c-5.49,9.34-16.41,5.95-17.28-.92C116.13,63.63,121.45,65.06,129.82,64.68Zm-13.58-4.75a2.2,2.2,0,0,1,0-1.83,13.34,13.34,0,0,1,4.17-5.8,8,8,0,0,1,5.94-2,9.6,9.6,0,0,1,5.4,2.51,10.58,10.58,0,0,1,2,2.42,5.37,5.37,0,0,1,.85,2.26c.18,1.87-1.37,2.79-3,3.16a33.84,33.84,0,0,1-7.12.34H120.4C119.22,61,117,61.14,116.24,59.93Z"/><path class="cls-1" d="M156.81,40.89a2,2,0,0,1,.82-1,2.25,2.25,0,0,1,.68-.16,13.27,13.27,0,0,1,1.41,0c.5,0,1,0,1.49-.07,1.2,0,2.41-.13,3.61-.16s2.51-.06,3.77,0c.84,0,1.69,0,2.53.14s2.54.15,2.83,1.06a3.56,3.56,0,0,1,0,1.38c-.12,1.3-.47,2.58-.71,3.86a31.23,31.23,0,0,0-.5,7.78A43.13,43.13,0,0,0,174,60.81a52.62,52.62,0,0,0,1.67,5.76c.18.48.74,2.54,1.48,2.54,1.21,0,4.11-8.37,5.61-13.88.79-2.91,1.27-6.39.3-9.31-.41-1.24-1.29-1.52-2.48-1.76-1.6-.33-2.06-1.26-1.77-2.83.32-1.73,2.88-2.11,4.28-2.45,1.83-.44,3.65-1,5.44-1.53a14.29,14.29,0,0,1,4.18-1.11c1.67-.05,1.48,1.5,1.62,2.71a8.48,8.48,0,0,1-.05,2.93c-.78,3.21-3.77,5.16-5.16,8.06a36,36,0,0,0-2.49,9.13c-.29,1.52-.57,3-1,4.55-.91,3.45-1.69,6.88-2.32,10.39a69.25,69.25,0,0,1-1.9,9.27c-.5,1.54-2.08,1.51-3.47,1.61a13.36,13.36,0,0,1-3.68-.15c-1.3-.24-.75-1.68-.62-2.6a25.84,25.84,0,0,0,.34-3c.09-3.72-1.26-7.06-2.53-10.49s-2.62-7-3.57-10.63a43.08,43.08,0,0,1-1.09-5.38c-.45-3.37-.79-6.74-4.1-8.52a16.77,16.77,0,0,0-3.63-1.38c-.46-.12-1-.14-1.42-.26a1.62,1.62,0,0,1-.71-.37A1,1,0,0,1,156.81,40.89Z"/><path class="cls-1" d="M195.74,50.6a2.37,2.37,0,0,1,.54-1.46c.54-.47,1.69-.37,2.35-.36a22,22,0,0,1,2.7.27c1.33.19,2.67.33,4,.42.88.06,2.34.17,2.93-.66,1.17-1.64-2.14-3.58-2.94-4.69-1.48-2-1.44-5.6.72-7.17a5.57,5.57,0,0,1,4.79-.47c1.61.53,2.38,2.3,2.57,3.87.41,3.25-.12,6.71-.44,9.95-.3,3-.75,6.07-.85,9.11s.18,6,.15,8.94a28,28,0,0,1-.33,4.19,9.73,9.73,0,0,0-.13,4.39,1.76,1.76,0,0,0,1.49,1.42,42.21,42.21,0,0,0,6.75.26c.77,0,1.54,0,2.31.06a4,4,0,0,1,1.75.37c.65.4.6,1.63.67,2.32.12,1.08.15,2.78-1.22,3.06a10,10,0,0,1-2.73-.09c-1.79-.14-3.59-.32-5.38-.5l-6.74-.66c-2.28-.21-4.55-.41-6.82-.57-1.87-.13-3.74-.25-5.61-.24-.54,0-1.08,0-1.61.09s-1.47.37-1.73-.46a3.7,3.7,0,0,1,.43-3,2.32,2.32,0,0,1,2.74-1c3.71,1,8.07,2.35,9.07.9s2.29-5.08,2.29-12.15,1.74-11.17-3.1-12.43c-2.24-.58-4.51-.26-6.76-.62a2,2,0,0,1-1.86-1.81A6.16,6.16,0,0,1,195.74,50.6Z"/><path class="cls-1" d="M224.74,36.14a1.56,1.56,0,0,1,.82-1.25,3.53,3.53,0,0,1,.86-.24,43.37,43.37,0,0,1,7.72-.69c2.4,0,5.11,0,7.32,1.06l.12.07c3.9,2,5.13,6.94,5.47,10.95.29,3.29-1,6.28-1.79,9.39a50.4,50.4,0,0,0-1.58,8,33,33,0,0,0,.12,6c.09,1.13.22,2.25.27,3.38.06,1.78.06,3.49,1.84,4.45a6.65,6.65,0,0,0,3.24.63c2.12,0,4.23-.32,6.35-.27.82,0,1.49.27,1.56,1.17.12,1.72-.53,4.42-2.66,4.47s-4.3-.1-6.44-.18c-3.63-.12-7.26-.24-10.9-.29-1.89,0-3.78,0-5.67,0-.95,0-1.91,0-2.87.07-.48,0-1,0-1.43.06-.62,0-1.23.26-1.36-.54-.31-1.84,0-4.69,2.16-5.24s3.82,1.78,5.64,2.48c2.26.87,5-1.39,5.26-4s-.9-11.64-.39-17c.2-2,.58-4.06.85-6.08a15.82,15.82,0,0,0,0-6.17c-.55-1.94-2.4-3.27-4.06-4.24a21.34,21.34,0,0,0-6-2.34c-.6-.14-1.21-.25-1.83-.34a11.53,11.53,0,0,1-1.86-.23,1.24,1.24,0,0,1-.84-1.37A10.85,10.85,0,0,1,224.74,36.14Z"/><path class="cls-1" d="M257.16,36.14a1.56,1.56,0,0,1,.82-1.25,3.53,3.53,0,0,1,.86-.24,43.37,43.37,0,0,1,7.72-.69c2.4,0,5.11,0,7.32,1.06l.12.07c3.89,2,5.13,6.94,5.47,10.95.29,3.29-1,6.28-1.79,9.39a50.4,50.4,0,0,0-1.58,8,33,33,0,0,0,.12,6c.09,1.13.22,2.25.27,3.38.06,1.78.06,3.49,1.84,4.45a6.63,6.63,0,0,0,3.24.63c2.12,0,4.23-.32,6.35-.27.82,0,1.49.27,1.56,1.17.12,1.72-.53,4.42-2.66,4.47s-4.3-.1-6.44-.18c-3.63-.12-7.27-.24-10.9-.29-1.89,0-3.78,0-5.67,0-1,0-1.91,0-2.87.07q-.72,0-1.44.06c-.61,0-1.22.26-1.35-.54-.31-1.84,0-4.69,2.16-5.24s3.82,1.78,5.64,2.48c2.26.87,5-1.39,5.26-4s-.91-11.64-.39-17c.2-2,.58-4.06.85-6.08a15.82,15.82,0,0,0,0-6.17c-.56-1.94-2.4-3.27-4.06-4.24a21.34,21.34,0,0,0-6-2.34c-.6-.14-1.21-.25-1.83-.34a11.53,11.53,0,0,1-1.86-.23,1.24,1.24,0,0,1-.84-1.37A10.85,10.85,0,0,1,257.16,36.14Z"/></g></svg>